<?xml version="1.0" encoding="UTF-8"?><svg id="Layer_1" xmlns="http://www.w3.org/2000/svg" xmlns:xlink="http://www.w3.org/1999/xlink" viewBox="0 0 165.6 145.13"><defs><style>.cls-1,.cls-2,.cls-3{stroke-width:0px;}.cls-2{fill:none;}.cls-3{fill:#fff;}.cls-4{clip-path:url(#clippath);}</style><clipPath id="clippath"><rect class="cls-2" width="165.6" height="145.13"/></clipPath></defs><rect class="cls-3" width="165.6" height="145.13"/><g class="cls-4"><path class="cls-1" d="m87.49,44.25h6.94c0,4.31-3.05,7.07-6.94,7.32v6.77c8.23-.45,14.37-5.98,14.37-16.29v-12.16h-14.37v14.36Z"/><path class="cls-1" d="m106.64,44.25h6.94c0,4.31-3.05,7.07-6.94,7.32v6.77c8.23-.45,14.37-5.98,14.37-16.29v-12.16h-14.37v14.36Z"/><path class="cls-1" d="m67.68,67.11h-14.72l7.36-21.27,7.36,21.27Zm22.78,22.48l-21.14-59.7h-18.01l-21.14,59.7h15l3.66-10.56h22.97l3.66,10.56h15Z"/><path class="cls-1" d="m32.4,112.49h-2.22l3.39-9.82h2.68l3.38,9.82h-2.22l-.73-2.24h-3.54l-.73,2.24Zm1.26-3.86h2.49l-1.21-3.71h-.08l-1.21,3.71Z"/><path class="cls-1" d="m42.83,112.63c-.7,0-1.29-.18-1.75-.55-.46-.37-.7-.92-.7-1.64,0-.55.13-.98.39-1.29.26-.31.6-.54,1.02-.69.42-.15.87-.24,1.36-.28.64-.06,1.1-.13,1.37-.2.28-.07.41-.22.41-.46v-.03c0-.3-.09-.54-.29-.7-.19-.17-.46-.25-.81-.25-.37,0-.66.08-.88.24-.22.16-.36.36-.43.61l-1.89-.15c.14-.67.49-1.2,1.05-1.6.56-.39,1.28-.59,2.16-.59.55,0,1.06.09,1.53.26.48.17.86.44,1.15.81.29.37.44.84.44,1.43v4.97h-1.94v-1.02h-.06c-.18.34-.45.62-.8.84-.36.22-.81.32-1.35.32m.59-1.41c.45,0,.81-.13,1.1-.39.29-.26.43-.58.43-.97v-.78c-.08.05-.2.1-.37.14-.17.04-.35.08-.54.11-.19.03-.36.06-.51.08-.36.05-.65.15-.86.3-.22.15-.33.37-.33.66s.1.49.31.64c.2.14.46.22.77.22"/><rect class="cls-1" x="48.66" y="102.67" width="2.04" height="9.82"/><path class="cls-1" d="m56.28,105.13v1.53h-1.39v3.57c0,.28.06.47.19.57.13.1.29.15.5.15.1,0,.19,0,.29-.03.1-.02.17-.03.22-.04l.32,1.52c-.1.03-.25.07-.43.11-.19.04-.41.07-.68.08-.74.03-1.34-.13-1.78-.48-.45-.35-.67-.89-.67-1.61v-3.84h-1.01v-1.53h1.01v-1.76h2.04v1.76h1.39Z"/><path class="cls-1" d="m60.74,112.63c-.74,0-1.39-.16-1.93-.48-.54-.32-.96-.76-1.25-1.33-.29-.57-.44-1.23-.44-1.99s.15-1.43.44-2c.29-.57.71-1.01,1.25-1.33s1.19-.48,1.93-.48,1.39.16,1.93.48c.54.32.96.76,1.25,1.33.29.57.44,1.24.44,2s-.15,1.42-.44,1.99c-.29.57-.71,1.01-1.25,1.33-.54.32-1.19.48-1.93.48m.01-1.58c.5,0,.89-.21,1.15-.63.26-.42.39-.95.39-1.6s-.13-1.17-.39-1.6c-.26-.42-.64-.63-1.15-.63s-.9.21-1.17.63c-.26.42-.39.96-.39,1.6s.13,1.17.39,1.6c.26.42.65.63,1.17.63"/><path class="cls-1" d="m74.93,102.67h2.08v6.38c0,.72-.17,1.34-.51,1.88-.34.54-.81.95-1.42,1.25-.61.3-1.32.45-2.14.45s-1.53-.15-2.14-.45c-.61-.3-1.08-.72-1.42-1.25-.34-.54-.51-1.16-.51-1.88v-6.38h2.07v6.2c0,.56.18,1.02.55,1.39.36.36.85.55,1.45.55s1.09-.18,1.45-.55c.36-.36.54-.83.54-1.39v-6.2Z"/><path class="cls-1" d="m80.85,108.23v4.26h-2.04v-7.36h1.95v1.3h.09c.17-.43.44-.77.82-1.02.38-.25.85-.38,1.39-.38.77,0,1.38.25,1.85.74.46.49.69,1.17.69,2.03v4.69h-2.04v-4.32c0-.45-.11-.8-.35-1.06-.23-.26-.55-.38-.96-.38s-.75.13-1,.4c-.26.26-.39.63-.39,1.11"/><path class="cls-1" d="m88.29,104.18c-.3,0-.56-.1-.78-.31-.22-.2-.33-.45-.33-.73s.11-.53.33-.73c.22-.2.48-.3.78-.3s.56.1.78.3c.22.2.32.44.32.73s-.11.53-.32.73c-.22.2-.48.31-.78.31m-1.03.95h2.04v7.36h-2.04v-7.36Z"/><polygon class="cls-1" points="97.78 105.13 95.21 112.49 92.9 112.49 90.33 105.13 92.49 105.13 94.02 110.39 94.09 110.39 95.62 105.13 97.78 105.13"/><path class="cls-1" d="m101.87,112.63c-.75,0-1.4-.15-1.95-.46-.55-.31-.97-.75-1.26-1.31-.29-.57-.44-1.24-.44-2.02s.15-1.42.44-1.99.71-1.02,1.24-1.34c.53-.32,1.16-.48,1.89-.48.65,0,1.24.14,1.76.41.52.27.94.69,1.24,1.24.31.55.46,1.25.46,2.08v.56h-5.01c0,.55.15.99.45,1.3.3.32.71.48,1.22.48.34,0,.64-.07.89-.22.25-.14.43-.36.53-.64l1.89.12c-.15.68-.51,1.23-1.09,1.64s-1.33.61-2.24.61m-1.63-4.57h3.09c0-.44-.14-.8-.42-1.08-.28-.28-.64-.43-1.08-.43s-.83.15-1.12.44c-.29.29-.45.65-.47,1.07"/><path class="cls-1" d="m106.67,112.49v-7.36h1.98v1.28h.08c.13-.46.36-.8.67-1.04.32-.24.68-.35,1.09-.35.23,0,.44.02.64.07v1.81c-.1-.03-.23-.06-.4-.08-.17-.02-.32-.03-.46-.03-.45,0-.82.14-1.12.42-.3.28-.44.65-.44,1.11v4.17h-2.04Z"/><path class="cls-1" d="m118.36,107.22l-1.87.12c-.05-.24-.18-.44-.39-.61-.21-.17-.49-.25-.84-.25-.32,0-.58.07-.8.2-.22.13-.33.31-.32.53,0,.18.07.32.21.45.14.12.39.22.73.29l1.33.27c1.42.29,2.12.96,2.13,1.99,0,.48-.14.91-.42,1.27-.28.36-.67.65-1.16.85-.49.2-1.06.3-1.69.3-.98,0-1.75-.2-2.33-.61-.58-.41-.92-.96-1.01-1.67l2.01-.11c.06.3.21.53.44.68.23.15.53.23.89.23s.65-.07.86-.21c.22-.14.33-.32.33-.54-.01-.37-.32-.61-.95-.73l-1.27-.25c-1.43-.28-2.14-.99-2.13-2.1,0-.71.28-1.27.85-1.68s1.33-.61,2.27-.61,1.66.2,2.2.59c.54.39.85.93.94,1.61"/><path class="cls-1" d="m120.89,104.18c-.3,0-.56-.1-.78-.31-.22-.2-.33-.45-.33-.73s.11-.53.33-.73c.22-.2.48-.3.78-.3s.56.1.78.3c.22.2.33.44.33.73s-.11.53-.33.73c-.22.2-.48.31-.78.31m-1.03.95h2.04v7.36h-2.04v-7.36Z"/><path class="cls-1" d="m127.41,105.13v1.53h-1.39v3.57c0,.28.06.47.19.57.13.1.29.15.5.15.1,0,.19,0,.29-.03.1-.02.17-.03.22-.04l.32,1.52c-.1.03-.25.07-.43.11-.18.04-.41.07-.68.08-.74.03-1.34-.13-1.79-.48s-.67-.89-.67-1.61v-3.84h-1.01v-1.53h1.01v-1.76h2.04v1.76h1.39Z"/><path class="cls-1" d="m130.13,115.25c-.26,0-.5-.02-.73-.06-.23-.04-.41-.09-.56-.15l.46-1.52c.36.11.67.14.92.09.25-.05.44-.25.58-.59l.12-.31-2.64-7.57h2.15l1.52,5.41h.08l1.54-5.41h2.16l-2.86,8.16c-.21.6-.53,1.07-.96,1.43-.43.36-1.02.54-1.78.54"/></g></svg>