<?xml version="1.0" encoding="UTF-8"?><svg id="Layer_1" xmlns="http://www.w3.org/2000/svg" viewBox="0 0 165.6 145.13"><defs><style>.cls-1{fill:#fff;}.cls-1,.cls-2{stroke-width:0px;}.cls-3{font-family:OpenSans, 'Open Sans';font-size:13px;}.cls-2{fill:#19171c;fill-rule:evenodd;}</style></defs><rect class="cls-1" width="165.6" height="145.13"/><path class="cls-2" d="m56.61,75.92c0,5.55-4.52,10.07-10.07,10.07v4.03c5.12,0,9.61-2.75,12.09-6.85v-7.25h-2.01Zm4.03,0c0,5.55,4.52,10.07,10.07,10.07v4.03c-5.12,0-9.62-2.75-12.09-6.85v-7.25h2.01Zm48.34-32.24c0-5.55,4.52-10.07,10.07-10.07v-4.03c-5.12,0-9.62,2.75-12.09,6.85v7.25h2.01Zm-4.03,0h2.02v-7.25c-2.47-4.1-6.97-6.85-12.09-6.85v4.03c5.55,0,10.07,4.53,10.07,10.07h0Zm0,32.23c0,5.55-4.52,10.08-10.07,10.08v4.02c7.77,0,14.1-6.34,14.1-14.1h-4.03Zm48.34-32.23h4.03c0-7.77-6.33-14.1-14.1-14.1v4.03c5.55,0,10.07,4.53,10.07,10.07h0ZM12.3,75.92h-4.03c0,7.76,6.33,14.1,14.1,14.1v-4.03c-5.55,0-10.07-4.52-10.07-10.07h0Zm58.42-46.33c-7.38,0-14.12,6.37-14.1,14.09h4.03c0-5.73,4.68-10.07,10.07-10.08-.01-1.92-.01-2.55,0-4.02h0Zm38.27,56.4v4.03h24.17v-20.15h24.17v-26.19h-4.03v22.16h-20.14v-22.16h-4.03v42.3h-20.14Zm10.07-56.41h24.17v4.04h-24.17v-4.04h0Zm-10.06,37.44v8.9h-4.04v-7.23l-23.56-23.6,2.82-2.86,24.78,24.79h0Zm-52.38-14.44l24.78,24.79,2.82-2.86-23.57-23.6v-7.23h-4.03v8.9h0ZM8.27,29.59h48.34v4.03h-20.14v42.22h-4.03v-42.22H12.3v42.3h-4.03V29.59h0Zm14.1,56.4h24.18v4.03h-24.18v-4.03h0Zm48.35-56.4h24.17s0,4.03,0,4.03h-24.17v-4.03h0Zm0,56.41h24.17v4.02h-24.17s0-4.02,0-4.02h0Z"/><text class="cls-3" transform="translate(8.27 108.33)"><tspan x="0" y="0">University of São Paulo</tspan></text></svg>